<?xml version="1.0" standalone="no"?>
<!DOCTYPE svg PUBLIC "-//W3C//DTD SVG 20010904//EN"
 "http://www.w3.org/TR/2001/REC-SVG-20010904/DTD/svg10.dtd">
<svg version="1.0" xmlns="http://www.w3.org/2000/svg"
 width="70.000000pt" height="70.000000pt" viewBox="0 0 70.000000 70.000000"
 preserveAspectRatio="xMidYMid meet">
<metadata>
Created by potrace 1.14, written by Peter Selinger 2001-2017
</metadata>
<g transform="translate(0.000000,70.000000) scale(0.100000,-0.100000)"
fill="#000000" stroke="none">
<path d="M0 350 l0 -350 350 0 350 0 0 350 0 350 -350 0 -350 0 0 -350z m317
67 c44 -41 37 -57 -23 -57 -34 0 -51 6 -69 25 -41 40 -33 65 22 65 24 0 44 -9
70 -33z m191 7 c5 -33 -41 -64 -94 -64 -23 0 -46 5 -49 10 -4 6 9 26 29 46 30
30 41 35 73 32 30 -2 39 -8 41 -24z"/>
</g>
</svg>
